<svg width="24" height="25" viewBox="0 0 24 25" fill="none" xmlns="http://www.w3.org/2000/svg">
<path d="M12.2446 10.2285V15.0696H18.8347C18.5453 16.6265 17.6769 17.9448 16.3745 18.8312L20.3486 21.9791C22.664 19.7973 23.9999 16.5925 23.9999 12.7856C23.9999 11.8992 23.922 11.0468 23.7772 10.2287L12.2446 10.2285Z" fill="#4285F4"/>
<path d="M5.38243 14.8789L4.48613 15.5793L1.31348 18.1021C3.32835 22.1818 7.45799 25.0002 12.2447 25.0002C15.5508 25.0002 18.3226 23.8865 20.3486 21.9773L16.3746 18.8294C15.2836 19.5795 13.8921 20.0341 12.2447 20.0341C9.06097 20.0341 6.35599 17.8408 5.38744 14.8861L5.38243 14.8789Z" fill="#34A853"/>
<path d="M1.31347 6.90039C0.478623 8.58221 0 10.4801 0 12.5028C0 14.5256 0.478623 16.4235 1.31347 18.1053C1.31347 18.1166 5.38783 14.8779 5.38783 14.8779C5.14293 14.1278 4.99817 13.3324 4.99817 12.5027C4.99817 11.673 5.14293 10.8776 5.38783 10.1275L1.31347 6.90039Z" fill="#FBBC05"/>
<path d="M12.2449 4.97749C14.0483 4.97749 15.6513 5.61386 16.9315 6.84121L20.438 3.26155C18.3118 1.23877 15.5512 0 12.2449 0C7.45824 0 3.32835 2.80694 1.31348 6.89804L5.38771 10.1255C6.35612 7.17075 9.06122 4.97749 12.2449 4.97749Z" fill="#EA4335"/>
</svg>
